<svg width="60" height="52" viewBox="0 0 60 52" fill="#ffbb83" xmlns="http://www.w3.org/2000/svg">
<path d="M6.96686 33.4641H14.4489V34.4121H6.96086C8.71286 36.0681 10.0329 41.7441 10.0329 43.6281C9.92486 45.8361 8.04686 47.5461 5.83286 47.4381C3.77486 47.3361 2.12486 45.6921 2.02286 43.6281C2.02286 41.5701 3.57686 34.9581 5.57486 34.0521C5.56886 34.0161 5.56886 33.9741 5.57486 33.9381C5.57486 33.9381 5.57486 33.8601 5.57486 33.8241C3.55886 32.9361 2.00486 26.3001 2.00486 24.2541C1.89686 22.0461 3.60086 20.1621 5.81486 20.0541C8.02886 19.9461 9.90686 21.6501 10.0149 23.8641C10.0209 23.9961 10.0209 24.1221 10.0149 24.2541C10.0269 26.1321 8.71286 31.8081 6.96686 33.4641Z" />
<path d="M15.1389 33.284V36.68C15.1569 42.626 19.9809 47.444 25.9329 47.444H33.3909C42.7029 47.444 54.9129 40.154 55.7409 30.962H15.1389V33.284Z" />
<path d="M58.7589 28.784C58.6989 29.66 57.9489 30.32 57.0729 30.266H13.7889C12.9729 30.362 12.2349 29.774 12.1389 28.958C12.0429 28.142 12.6309 27.404 13.4469 27.308C13.5609 27.296 13.6749 27.296 13.7889 27.308H57.0729C57.9429 27.248 58.6989 27.908 58.7589 28.784Z" />
<path d="M43.8607 5H43.6507C43.4347 5 43.2607 5.174 43.2607 5.39V26.606H44.2447V5.39C44.2507 5.174 44.0767 5 43.8607 5Z" />
<path d="M43.2608 15.806H33.5528C33.0848 15.806 32.8628 15.23 33.2108 14.918L43.2608 5.95398" />
</svg>
